<svg width="68" height="68" viewBox="0 0 68 68" fill="none" xmlns="http://www.w3.org/2000/svg">
<path d="M12.0415 11.3333C8.52069 11.3333 5.6665 14.1874 5.6665 17.7083V24.7916C5.6665 28.3124 8.52069 31.1666 12.0415 31.1666H19.1248C22.6457 31.1666 25.4998 28.3124 25.4998 24.7916V17.7083C25.4998 14.1874 22.6457 11.3333 19.1248 11.3333H12.0415ZM9.9165 17.7083C9.9165 16.5347 10.8679 15.5833 12.0415 15.5833H19.1248C20.2984 15.5833 21.2498 16.5347 21.2498 17.7083V24.7916C21.2498 25.9652 20.2984 26.9166 19.1248 26.9166H12.0415C10.8679 26.9166 9.9165 25.9652 9.9165 24.7916V17.7083ZM31.8748 14.1666C30.7013 14.1666 29.7498 15.118 29.7498 16.2916C29.7498 17.4652 30.7013 18.4166 31.8748 18.4166H60.2082C61.3817 18.4166 62.3332 17.4652 62.3332 16.2916C62.3332 15.118 61.3817 14.1666 60.2082 14.1666H31.8748ZM31.8748 22.6666C30.7013 22.6666 29.7498 23.618 29.7498 24.7916C29.7498 25.9652 30.7013 26.9166 31.8748 26.9166H51.7082C52.8817 26.9166 53.8332 25.9652 53.8332 24.7916C53.8332 23.618 52.8817 22.6666 51.7082 22.6666H31.8748ZM12.0415 36.8333C8.52069 36.8333 5.6665 39.6876 5.6665 43.2083V50.2916C5.6665 53.8123 8.52069 56.6666 12.0415 56.6666H19.1248C22.6457 56.6666 25.4998 53.8123 25.4998 50.2916V43.2083C25.4998 39.6876 22.6457 36.8333 19.1248 36.8333H12.0415ZM9.9165 43.2083C9.9165 42.0347 10.8679 41.0833 12.0415 41.0833H19.1248C20.2984 41.0833 21.2498 42.0347 21.2498 43.2083V50.2916C21.2498 51.4652 20.2984 52.4166 19.1248 52.4166H12.0415C10.8679 52.4166 9.9165 51.4652 9.9165 50.2916V43.2083ZM31.8748 39.6666C30.7013 39.6666 29.7498 40.618 29.7498 41.7916C29.7498 42.9652 30.7013 43.9166 31.8748 43.9166H60.2082C61.3817 43.9166 62.3332 42.9652 62.3332 41.7916C62.3332 40.618 61.3817 39.6666 60.2082 39.6666H31.8748ZM31.8748 48.1666C30.7013 48.1666 29.7498 49.118 29.7498 50.2916C29.7498 51.4652 30.7013 52.4166 31.8748 52.4166H51.7082C52.8817 52.4166 53.8332 51.4652 53.8332 50.2916C53.8332 49.118 52.8817 48.1666 51.7082 48.1666H31.8748Z" fill="#ECDDA7"/>
</svg>
