<svg width="72" height="72" viewBox="0 0 72 72" fill="none" xmlns="http://www.w3.org/2000/svg">
<path d="M24 29.25C24 28.0074 25.0074 27 26.25 27H45.75C46.9926 27 48 28.0074 48 29.25C48 30.4926 46.9926 31.5 45.75 31.5H26.25C25.0074 31.5 24 30.4926 24 29.25ZM29.25 36C26.3505 36 24 38.3505 24 41.25V48.75C24 51.6495 26.3505 54 29.25 54H42.75C45.6495 54 48 51.6495 48 48.75V41.25C48 38.3505 45.6495 36 42.75 36H29.25ZM28.5 41.25C28.5 40.8357 28.8358 40.5 29.25 40.5H42.75C43.1643 40.5 43.5 40.8357 43.5 41.25V48.75C43.5 49.1643 43.1643 49.5 42.75 49.5H29.25C28.8358 49.5 28.5 49.1643 28.5 48.75V41.25ZM41.25 6C44.7267 6 47.5893 8.6283 47.9595 12.0063C47.9592 12.0036 47.9589 12.001 47.9586 11.9983L53.25 12C56.9778 12 60 15.0221 60 18.75V59.25C60 62.9778 56.9778 66 53.25 66H18.75C15.0221 66 12 62.9778 12 59.25V18.75C12 15.0221 15.0221 12 18.75 12L24.0414 11.9983C24.4152 8.62416 27.2761 6 30.75 6H41.25ZM47.9844 12.2879L48 12.75C48 12.5947 47.9949 12.4406 47.9844 12.2879ZM41.25 19.5H30.75C28.4099 19.5 26.3479 18.3092 25.137 16.5005L18.75 16.5C17.5074 16.5 16.5 17.5074 16.5 18.75V59.25C16.5 60.4926 17.5074 61.5 18.75 61.5H53.25C54.4926 61.5 55.5 60.4926 55.5 59.25V18.75C55.5 17.5074 54.4926 16.5 53.25 16.5L46.863 16.5006C45.6519 18.3093 43.59 19.5 41.25 19.5ZM41.25 10.5H30.75C29.5074 10.5 28.5 11.5074 28.5 12.75C28.5 13.9926 29.5074 15 30.75 15H41.25C42.4926 15 43.5 13.9926 43.5 12.75C43.5 11.5074 42.4926 10.5 41.25 10.5Z" fill="#ECDDA7"/>
</svg>
