<svg width="69" height="69" viewBox="0 0 69 69" fill="none" xmlns="http://www.w3.org/2000/svg">
<path d="M30.4494 7.22489C33.0473 6.17178 35.9527 6.17178 38.5506 7.22489L60.1091 15.9648C62.0077 16.7345 63.25 18.5787 63.25 20.6275V48.3791C63.25 50.4278 62.0077 52.2718 60.1091 53.0417L38.5506 61.7814C35.9527 62.8346 33.0473 62.8346 30.4494 61.7814L8.891 53.0417C6.99232 52.2718 5.75 50.4278 5.75 48.3791V20.6275C5.75 18.5787 6.99232 16.7345 8.891 15.9648L30.4494 7.22489ZM36.9302 11.2215C35.3717 10.5896 33.6283 10.5896 32.0698 11.2215L26.5678 13.4519L48.2074 21.8674L55.8814 18.9043L36.9302 11.2215ZM42.2369 24.1726L20.7423 15.8136L13.1971 18.8725L34.5037 27.1584L42.2369 24.1726ZM10.0625 48.3791C10.0625 48.6717 10.24 48.9351 10.5112 49.0452L32.0698 57.7849C32.1606 57.822 32.2526 57.8568 32.3446 57.8893V30.9459L10.0625 22.2806V48.3791ZM36.9302 57.7849L58.4887 49.0452C58.7601 48.9351 58.9375 48.6717 58.9375 48.3791V22.3471L36.6571 30.9496V57.8887C36.7488 57.8562 36.84 57.8217 36.9302 57.7849Z" fill="#ECDDA7"/>
</svg>
