<svg width="68" height="68" viewBox="0 0 68 68" fill="none" xmlns="http://www.w3.org/2000/svg">
<path d="M5.66683 16.9999C5.66683 13.8703 8.20388 11.3333 11.3335 11.3333H56.6668C59.7965 11.3333 62.3335 13.8703 62.3335 16.9999V50.9999C62.3335 54.1296 59.7965 56.6666 56.6668 56.6666H35.4219C35.9824 55.323 36.3881 53.899 36.617 52.4166H56.6668C57.4491 52.4166 58.0835 51.7822 58.0835 50.9999V16.9999C58.0835 16.2175 57.4491 15.5833 56.6668 15.5833H21.2502V31.3831C20.3266 31.2405 19.3804 31.1666 18.4168 31.1666C17.9401 31.1666 17.4677 31.1847 17.0002 31.2201V15.5833H11.3335C10.5511 15.5833 9.91683 16.2175 9.91683 16.9999V33.2411C8.35561 34.0549 6.92559 35.0857 5.66683 36.2938V16.9999ZM34.0002 19.8333C30.8705 19.8333 28.3335 22.3703 28.3335 25.4999V28.3333C28.3335 31.463 30.8705 33.9999 34.0002 33.9999H45.3335C48.4632 33.9999 51.0002 31.463 51.0002 28.3333V25.4999C51.0002 22.3703 48.4632 19.8333 45.3335 19.8333H34.0002ZM45.3335 24.0833C46.1158 24.0833 46.7502 24.7175 46.7502 25.4999V28.3333C46.7502 29.1155 46.1158 29.7499 45.3335 29.7499H34.0002C33.2179 29.7499 32.5835 29.1155 32.5835 28.3333V25.4999C32.5835 24.7175 33.2179 24.0833 34.0002 24.0833H45.3335ZM18.4168 33.9999C27.0233 33.9999 34.0002 40.9767 34.0002 49.5833C34.0002 58.1898 27.0233 65.1666 18.4168 65.1666C9.81038 65.1666 2.8335 58.1898 2.8335 49.5833C2.8335 40.9767 9.81038 33.9999 18.4168 33.9999ZM19.8366 58.0932L19.8353 50.9999H26.9072C27.6888 50.9999 28.3224 50.3658 28.3224 49.5833C28.3224 48.801 27.6888 48.1666 26.9072 48.1666H19.8348L19.8335 41.0813C19.8335 40.2987 19.1992 39.6646 18.4168 39.6646C17.6344 39.6646 17.0002 40.2987 17.0002 41.0813L17.0015 48.1666H9.90436C9.12273 48.1666 8.48908 48.801 8.48908 49.5833C8.48908 50.3658 9.12273 50.9999 9.90436 50.9999H17.002L17.0033 58.0932C17.0033 58.8757 17.6376 59.5098 18.42 59.5098C19.2024 59.5098 19.8366 58.8757 19.8366 58.0932Z" fill="#ECDDA7"/>
</svg>
